<?xml version="1.0" encoding="UTF-8" standalone="no"?>
<!-- Created with Inkscape (http://www.inkscape.org/) -->

<svg
   xmlns:dc="http://purl.org/dc/elements/1.1/"
   xmlns:cc="http://creativecommons.org/ns#"
   xmlns:rdf="http://www.w3.org/1999/02/22-rdf-syntax-ns#"
   xmlns:svg="http://www.w3.org/2000/svg"
   xmlns="http://www.w3.org/2000/svg"
   xmlns:sodipodi="http://sodipodi.sourceforge.net/DTD/sodipodi-0.dtd"
   xmlns:inkscape="http://www.inkscape.org/namespaces/inkscape"
   width="191.51309mm"
   height="187.46774mm"
   viewBox="0 0 191.51309 187.46774"
   version="1.1"
   id="svg8"
   inkscape:version="0.92.4 5da689c313, 2019-01-14"
   sodipodi:docname="covid19.svg">
  <defs
     id="defs2" />
  <sodipodi:namedview
     id="base"
     pagecolor="#ffffff"
     bordercolor="#666666"
     borderopacity="1.0"
     inkscape:pageopacity="0.0"
     inkscape:pageshadow="2"
     inkscape:zoom="0.35"
     inkscape:cx="-181.00711"
     inkscape:cy="554.71832"
     inkscape:document-units="mm"
     inkscape:current-layer="layer1"
     showgrid="false"
     inkscape:window-width="1600"
     inkscape:window-height="851"
     inkscape:window-x="0"
     inkscape:window-y="25"
     inkscape:window-maximized="1" />
  <metadata
     id="metadata5">
    <rdf:RDF>
      <cc:Work
         rdf:about="">
        <dc:format>image/svg+xml</dc:format>
        <dc:type
           rdf:resource="http://purl.org/dc/dcmitype/StillImage" />
        <dc:title></dc:title>
      </cc:Work>
    </rdf:RDF>
  </metadata>
  <g
     inkscape:label="Layer 1"
     inkscape:groupmode="layer"
     id="layer1"
     transform="translate(-10.572406,-54.418679)">
    <path
       style="fill:#ff9200;fill-opacity:1;stroke-width:1.33936071"
       d="M 105.66703,54.418679 C 103.08872,54.418679 100.12823,54.958254 99.087945,55.616789 97.488965,56.628966 97.542425,57.158062 99.422755,59.038448 102.6756,62.291234 103.44773,66.884326 102.43373,76.923583 101.10401,90.088262 98.505145,94.211383 89.589485,97.288664 85.541585,98.685818 81.799945,99.849201 81.273385,99.873247 79.248165,99.965732 77.423815,94.529944 78.709755,92.232082 80.381635,89.244604 78.243935,85.182127 74.997735,85.182127 71.486825,85.182127 65.486205,90.282344 65.486205,93.268001 65.486205,95.661487 68.564245,98.260698 71.513305,98.355968 72.249945,98.379811 73.681015,99.643374 74.691675,101.16551 76.379195,103.70707 76.262565,103.93314 73.279085,103.93314 68.840995,103.93314 57.844735,98.184007 51.783925,92.695067 46.723242,88.111947 43.410267,81.955462 44.796739,79.71217 46.649942,76.713605 42.728699,78.923588 38.254264,83.398073 32.501029,89.151308 31.926526,91.779324 36.619291,90.88226 41.256221,89.995827 46.888369,94.452949 53.337755,104.11103 59.403575,113.1946 60.377535,119.75064 56.712335,126.83831 55.171265,129.81845 53.958925,130.66575 52.024575,130.11874 50.589561,129.7129 48.208426,129.0404 46.735138,128.62241 45.26185,128.20443 44.0564,127.02019 44.0564,125.99075 44.0564,123.62121 39.508311,121.11889 36.969845,122.093 34.239625,123.14066 31.764891,129.19768 32.771247,132.36841 33.510928,134.69892 34.431278,134.94762 39.844741,134.28332 43.568611,133.82625 47.645465,134.19412 49.99982,135.19886 L 53.934225,136.87833 49.968435,139.70351 C 42.644414,144.91864 22.467594,147.09987 15.443303,143.43644 13.333298,142.33598 11.374499,141.43527 11.090365,141.43527 10.806247,141.43527 10.572406,144.75022 10.572406,148.80177 10.572406,152.85336 10.897548,156.16821 11.291783,156.16821 11.686023,156.16821 13.550667,155.15866 15.435457,153.92375 21.347542,150.04999 41.046395,151.91777 48.958688,157.10212 50.682755,158.23174 52.092565,159.63006 52.092565,160.20988 52.092565,162.09705 43.684889,164.36909 42.199097,162.88335 41.452784,162.13704 39.167527,161.52568 37.118976,161.52568 34.260076,161.52568 33.198442,162.30698 32.551549,164.88452 30.596496,172.67396 41.214002,179.0513 43.988415,171.75401 45.07779,168.88878 48.702543,166.95003 53.063075,166.90143 55.545965,166.87374 58.789385,174.15696 58.789385,179.75879 58.789385,188.88321 43.914558,207.06392 36.449304,207.06392 32.329928,207.06392 32.524163,208.10161 37.623824,213.36311 42.635707,218.53405 44.0564,218.86314 44.0564,214.85417 44.0564,208.41577 63.929545,193.67033 72.606775,193.67033 77.378665,193.67033 77.193645,196.14476 72.292875,197.85324 66.932915,199.72163 66.217735,202.56094 70.126875,206.47013 76.197005,212.54026 85.948585,209.57546 81.793975,202.92288 80.952995,201.5763 80.582245,199.64828 80.969955,198.63798 82.000105,195.95342 94.813315,200.52277 97.701475,204.60493 100.55259,208.63476 102.98829,218.65407 102.98829,226.34601 102.98829,232.60455 100.77522,239.20858 98.677205,239.20858 98.015325,239.20858 97.845245,239.81128 98.300535,240.54792 99.194055,241.99367 111.3824,242.42401 112.74837,241.05804 113.20437,240.60204 112.70276,239.35655 111.63399,238.28777 110.56522,237.21895 109.28672,234.73501 108.79306,232.76816 107.53972,227.77445 110.45516,209.17828 113.13289,205.09151 115.14621,202.01883 122.77927,198.58654 124.41804,200.0166 124.78636,200.33805 125.08777,203.4008 125.08777,206.82327 125.08777,213.9606 127.58735,215.50506 133.19191,211.83277 137.39841,209.07664 137.45541,204.69367 133.30703,203.11646 126.22675,200.42456 129.72297,193.67033 138.1962,193.67033 147.45847,193.67033 170.15761,210.49353 168.10683,215.8378 166.81183,219.21253 169.59004,217.95398 174.88475,212.76406 L 180.00415,207.74671 175.79512,207.33075 C 170.80324,206.83861 160.45488,197.28344 156.48165,189.49528 153.53867,183.7266 153.11391,175.40291 155.49281,170.18181 156.86531,167.16937 157.69373,166.77356 161.1851,167.45862 163.43239,167.89964 166.0026,169.30545 166.89829,170.58465 171.51999,177.18529 172.68879,177.5443 176.65311,173.57993 179.7883,170.44479 180.18041,163.89786 177.37249,161.56755 175.82114,160.28004 174.5514,160.37242 171.26951,162.00962 168.02882,163.62632 166.41061,163.75288 163.85336,162.58772 159.95834,160.81303 159.81574,159.95551 162.94561,157.12303 170.002,150.73708 196.8967,150.44221 201.07814,156.70449 201.61938,157.51504 202.07138,154.01649 202.08267,148.92994 202.10302,139.74234 202.08571,139.69632 199.40393,142.12327 193.79547,147.19889 171.43413,145.75876 163.90565,139.83695 160.68936,137.30699 160.56073,136.86694 162.47737,134.95036 164.24775,133.17997 165.49142,133.08429 170.26761,134.35915 176.81636,136.10711 179.33448,134.86729 179.33448,129.88851 179.33448,126.30851 175.03859,121.34486 171.93923,121.34486 170.81842,121.34486 169.20987,122.86169 168.36581,124.71418 166.67288,128.42985 159.61047,131.13349 156.96818,129.07755 154.35322,127.04287 152.58658,119.65831 153.60671,115.02735 155.69014,105.56958 169.68025,90.539552 176.40197,90.539552 180.37865,90.539552 180.0893,88.817105 175.17511,83.220189 171.44729,78.974361 165.81636,76.373125 167.99961,79.905797 170.552,84.035651 159.33969,96.433617 149.23549,100.6554 143.4576,103.06959 135.12566,103.22561 135.1539,100.91959 135.18589,98.306106 137.16914,95.797456 140.54008,94.102496 144.80889,91.955993 145.16648,89.858237 141.8324,86.524103 137.68159,82.373342 133.13836,83.413462 133.07422,88.530537 132.98796,95.406658 131.03741,100.17379 128.67941,99.268927 127.52139,98.824521 123.80664,97.555541 120.42355,96.448955 112.93754,94.000443 111.46354,91.809646 109.47058,80.175205 107.74747,70.115902 108.67126,62.281059 111.96622,58.986106 113.80833,57.143989 113.85166,56.631497 112.24873,55.616789 111.20841,54.958254 108.24528,54.418679 105.66703,54.418679 Z"
       id="path4596"
       inkscape:connector-curvature="0"
       inkscape:export-xdpi="96"
       inkscape:export-ydpi="96" />
  </g>
</svg>
